# xmcd
#
# Track frame offsets: 
#        150
#        7802
#        29218
#        51637
#        74805
#        92552
#        103512
#        124315
#        147770
#        170567
#        193070
#        214191
#        234223
#        252458
#        270247
#        280275
#
# Disc length: 3973 seconds
#
# Revision: 3
# Processed by: cddbd v1.5.2PL0 Copyright (c) Steve Scherf et al.
# Submitted via: ExactAudioCopyFreeDBPlugin 1.0
#
DISCID=f30f8310
DTITLE=Playa - Cheers 2 U
DYEAR=1998
DGENRE=R&B
TTITLE0=Intro (Interlude) Feat. Magoo
TTITLE1=Don't Stop The Music
TTITLE2=All The Way
TTITLE3=Everybody Wanna Luv Somebody
TTITLE4=Together
TTITLE5=Derby City (Interlude) Feat. Magoo
TTITLE6=I-65
TTITLE7=Cheers 2 U
TTITLE8=Ms. Parker Feat. Missy "Misdemeanor" Elliott
TTITLE9=Top Of The World
TTITLE10=One Man Woman Feat. Aaliyah
TTITLE11=I'll B 2 C U
TTITLE12=Push
TTITLE13=Buggin' Over You
TTITLE14=Gospel (Interlude)
TTITLE15=I Gotta Know Feat. Foxy Brown
EXTD=
EXTT0=
EXTT1=
EXTT2=
EXTT3=
EXTT4=
EXTT5=
EXTT6=
EXTT7=
EXTT8=
EXTT9=
EXTT10=
EXTT11=
EXTT12=
EXTT13=
EXTT14=
EXTT15=
PLAYORDER=
